<?xml version="1.0" encoding="UTF-8" standalone="no"?>
<svg 
xmlns:dc="http://purl.org/dc/elements/1.1/"
xmlns:cc="http://creativecommons.org/ns#"
xmlns:rdf="http://www.w3.org/1999/02/22-rdf-syntax-ns#"
xmlns:svg="http://www.w3.org/2000/svg"
xmlns:xlink="http://www.w3.org/1999/xlink"
xmlns="http://www.w3.org/2000/svg"
version="1.1"
id="svg2">
<defs><g id="foreground"><g>
<g transform="translate(0,0)">
<rect
width="57"
height="17"
rx="5"
ry="5"
x="17"
y="17"
id="0"
style="fill:#48d35a;stroke:none;" />
<rect
width="57"
height="17"
rx="5"
ry="5"
x="77"
y="17"
id="1"
style="fill:#48d35a;stroke:none;" />
<rect
width="17"
height="17"
rx="5"
ry="5"
x="137"
y="17"
id="2"
style="fill:#df4736;stroke:none;" />
<rect
width="57"
height="17"
rx="5"
ry="5"
x="157"
y="17"
id="3"
style="fill:#df4736;stroke:none;" />
<rect
width="57"
height="17"
rx="5"
ry="5"
x="217"
y="17"
id="4"
style="fill:#85ab7d;stroke:none;" />
<rect
width="17"
height="17"
rx="5"
ry="5"
x="277"
y="17"
id="5"
style="fill:#85ab7d;stroke:none;" />
<rect
width="57"
height="17"
rx="5"
ry="5"
x="297"
y="17"
id="6"
style="fill:#ddbcb3;stroke:none;" />
<rect
width="17"
height="17"
rx="5"
ry="5"
x="357"
y="17"
id="7"
style="fill:#ddbcb3;stroke:none;" />

</g>
<g transform="translate(0,0)">
<rect
width="57"
height="17"
rx="5"
ry="5"
x="17"
y="37"
id="8"
style="fill:#ddbcb3;stroke:none;" />
<rect
width="17"
height="17"
rx="5"
ry="5"
x="77"
y="37"
id="9"
style="fill:#474c2f;stroke:none;" />
<rect
width="57"
height="17"
rx="5"
ry="5"
x="97"
y="37"
id="10"
style="fill:#474c2f;stroke:none;" />
<rect
width="57"
height="17"
rx="5"
ry="5"
x="157"
y="37"
id="11"
style="fill:#d0b5e2;stroke:none;" />
<rect
width="17"
height="17"
rx="5"
ry="5"
x="217"
y="37"
id="12"
style="fill:#d0b5e2;stroke:none;" />
<rect
width="57"
height="17"
rx="5"
ry="5"
x="237"
y="37"
id="13"
style="fill:#a5f65f;stroke:none;" />
<rect
width="17"
height="17"
rx="5"
ry="5"
x="297"
y="37"
id="14"
style="fill:#a5f65f;stroke:none;" />
<rect
width="57"
height="17"
rx="5"
ry="5"
x="317"
y="37"
id="15"
style="fill:#57fd19;stroke:none;" />

</g>
<g transform="translate(20,0)">
<rect
width="57"
height="17"
rx="5"
ry="5"
x="17"
y="57"
id="16"
style="fill:#57fd19;stroke:none;" />
<rect
width="17"
height="17"
rx="5"
ry="5"
x="77"
y="57"
id="17"
style="fill:#905021;stroke:none;" />
<rect
width="17"
height="17"
rx="5"
ry="5"
x="97"
y="57"
id="18"
style="fill:#905021;stroke:none;" />
<rect
width="57"
height="17"
rx="5"
ry="5"
x="117"
y="57"
id="19"
style="fill:#1ce674;stroke:none;" />
<rect
width="17"
height="17"
rx="5"
ry="5"
x="177"
y="57"
id="20"
style="fill:#6ef280;stroke:none;" />
<rect
width="17"
height="17"
rx="5"
ry="5"
x="197"
y="57"
id="21"
style="fill:#f982bd;stroke:none;" />
<rect
width="17"
height="17"
rx="5"
ry="5"
x="217"
y="57"
id="22"
style="fill:#f982bd;stroke:none;" />
<rect
width="57"
height="17"
rx="5"
ry="5"
x="237"
y="57"
id="23"
style="fill:#00da00;stroke:none;" />
<rect
width="17"
height="17"
rx="5"
ry="5"
x="297"
y="57"
id="24"
style="fill:#00da00;stroke:none;" />
<rect
width="17"
height="17"
rx="5"
ry="5"
x="317"
y="57"
id="25"
style="fill:#55aacf;stroke:none;" />

</g>
<g transform="translate(10,0)">
<rect
width="57"
height="17"
rx="5"
ry="5"
x="17"
y="77"
id="26"
style="fill:#f34f3f;stroke:none;" />
<rect
width="57"
height="17"
rx="5"
ry="5"
x="77"
y="77"
id="27"
style="fill:#f34f3f;stroke:none;" />
<rect
width="57"
height="17"
rx="5"
ry="5"
x="137"
y="77"
id="28"
style="fill:#b1410d;stroke:none;" />
<rect
width="17"
height="17"
rx="5"
ry="5"
x="197"
y="77"
id="29"
style="fill:#b1410d;stroke:none;" />
<rect
width="57"
height="17"
rx="5"
ry="5"
x="217"
y="77"
id="30"
style="fill:#b1410d;stroke:none;" />
<rect
width="17"
height="17"
rx="5"
ry="5"
x="277"
y="77"
id="31"
style="fill:#b1410d;stroke:none;" />
<rect
width="57"
height="17"
rx="5"
ry="5"
x="297"
y="77"
id="32"
style="fill:#5f9b76;stroke:none;" />

</g>
<g transform="translate(20,0)">
<rect
width="57"
height="17"
rx="5"
ry="5"
x="17"
y="97"
id="33"
style="fill:#5f9b76;stroke:none;" />
<rect
width="57"
height="17"
rx="5"
ry="5"
x="77"
y="97"
id="34"
style="fill:#5f9b76;stroke:none;" />
<rect
width="57"
height="17"
rx="5"
ry="5"
x="137"
y="97"
id="35"
style="fill:#fa4759;stroke:none;" />
<rect
width="57"
height="17"
rx="5"
ry="5"
x="197"
y="97"
id="36"
style="fill:#fa4759;stroke:none;" />
<rect
width="17"
height="17"
rx="5"
ry="5"
x="257"
y="97"
id="37"
style="fill:#15a416;stroke:none;" />
<rect
width="57"
height="17"
rx="5"
ry="5"
x="277"
y="97"
id="38"
style="fill:#15a416;stroke:none;" />

</g>
<g transform="translate(0,0)">
<rect
width="57"
height="17"
rx="5"
ry="5"
x="17"
y="117"
id="39"
style="fill:#15a416;stroke:none;" />
<rect
width="17"
height="17"
rx="5"
ry="5"
x="77"
y="117"
id="40"
style="fill:#15a416;stroke:none;" />
<rect
width="17"
height="17"
rx="5"
ry="5"
x="97"
y="117"
id="41"
style="fill:#fd502e;stroke:none;" />
<rect
width="17"
height="17"
rx="5"
ry="5"
x="117"
y="117"
id="42"
style="fill:#fd502e;stroke:none;" />
<rect
width="57"
height="17"
rx="5"
ry="5"
x="137"
y="117"
id="43"
style="fill:#fd502e;stroke:none;" />
<rect
width="57"
height="17"
rx="5"
ry="5"
x="197"
y="117"
id="44"
style="fill:#bfd081;stroke:none;" />
<rect
width="17"
height="17"
rx="5"
ry="5"
x="257"
y="117"
id="45"
style="fill:#db2e22;stroke:none;" />
<rect
width="17"
height="17"
rx="5"
ry="5"
x="277"
y="117"
id="46"
style="fill:#016206;stroke:none;" />
<rect
width="57"
height="17"
rx="5"
ry="5"
x="297"
y="117"
id="47"
style="fill:#016206;stroke:none;" />
<rect
width="17"
height="17"
rx="5"
ry="5"
x="357"
y="117"
id="48"
style="fill:#016206;stroke:none;" />

</g>
<g transform="translate(0,0)">
<rect
width="57"
height="17"
rx="5"
ry="5"
x="17"
y="137"
id="49"
style="fill:#e2a7b9;stroke:none;" />
<rect
width="17"
height="17"
rx="5"
ry="5"
x="77"
y="137"
id="50"
style="fill:#e2a7b9;stroke:none;" />
<rect
width="57"
height="17"
rx="5"
ry="5"
x="97"
y="137"
id="51"
style="fill:#e2a7b9;stroke:none;" />
<rect
width="17"
height="17"
rx="5"
ry="5"
x="157"
y="137"
id="52"
style="fill:#63b530;stroke:none;" />
<rect
width="17"
height="17"
rx="5"
ry="5"
x="177"
y="137"
id="53"
style="fill:#63b530;stroke:none;" />
<rect
width="57"
height="17"
rx="5"
ry="5"
x="197"
y="137"
id="54"
style="fill:#63b530;stroke:none;" />
<rect
width="57"
height="17"
rx="5"
ry="5"
x="257"
y="137"
id="55"
style="fill:#c95e0f;stroke:none;" />
<rect
width="17"
height="17"
rx="5"
ry="5"
x="317"
y="137"
id="56"
style="fill:#c95e0f;stroke:none;" />
<rect
width="17"
height="17"
rx="5"
ry="5"
x="337"
y="137"
id="57"
style="fill:#02bd58;stroke:none;" />
<rect
width="17"
height="17"
rx="5"
ry="5"
x="357"
y="137"
id="58"
style="fill:#02bd58;stroke:none;" />

</g>
<g transform="translate(0,0)">
<rect
width="17"
height="17"
rx="5"
ry="5"
x="17"
y="157"
id="59"
style="fill:#02bd58;stroke:none;" />
<rect
width="57"
height="17"
rx="5"
ry="5"
x="37"
y="157"
id="60"
style="fill:#fb8c42;stroke:none;" />
<rect
width="17"
height="17"
rx="5"
ry="5"
x="97"
y="157"
id="61"
style="fill:#c9750c;stroke:none;" />
<rect
width="17"
height="17"
rx="5"
ry="5"
x="117"
y="157"
id="62"
style="fill:#c9750c;stroke:none;" />
<rect
width="57"
height="17"
rx="5"
ry="5"
x="137"
y="157"
id="63"
style="fill:#c9750c;stroke:none;" />
<rect
width="57"
height="17"
rx="5"
ry="5"
x="197"
y="157"
id="64"
style="fill:#11c73d;stroke:none;" />
<rect
width="17"
height="17"
rx="5"
ry="5"
x="257"
y="157"
id="65"
style="fill:#11c73d;stroke:none;" />
<rect
width="57"
height="17"
rx="5"
ry="5"
x="277"
y="157"
id="66"
style="fill:#b96d40;stroke:none;" />
<rect
width="17"
height="17"
rx="5"
ry="5"
x="337"
y="157"
id="67"
style="fill:#b96d40;stroke:none;" />
<rect
width="17"
height="17"
rx="5"
ry="5"
x="357"
y="157"
id="68"
style="fill:#b96d40;stroke:none;" />

</g>
<g transform="translate(0,0)">
<rect
width="17"
height="17"
rx="5"
ry="5"
x="17"
y="177"
id="69"
style="fill:#fe701c;stroke:none;" />
<rect
width="17"
height="17"
rx="5"
ry="5"
x="37"
y="177"
id="70"
style="fill:#fe701c;stroke:none;" />
<rect
width="17"
height="17"
rx="5"
ry="5"
x="57"
y="177"
id="71"
style="fill:#fe701c;stroke:none;" />
<rect
width="57"
height="17"
rx="5"
ry="5"
x="77"
y="177"
id="72"
style="fill:#d1ffe2;stroke:none;" />
<rect
width="17"
height="17"
rx="5"
ry="5"
x="137"
y="177"
id="73"
style="fill:#d1ffe2;stroke:none;" />
<rect
width="57"
height="17"
rx="5"
ry="5"
x="157"
y="177"
id="74"
style="fill:#d1ffe2;stroke:none;" />
<rect
width="17"
height="17"
rx="5"
ry="5"
x="217"
y="177"
id="75"
style="fill:#d1ffe2;stroke:none;" />
<rect
width="17"
height="17"
rx="5"
ry="5"
x="237"
y="177"
id="76"
style="fill:#d74f28;stroke:none;" />
<rect
width="17"
height="17"
rx="5"
ry="5"
x="257"
y="177"
id="77"
style="fill:#d74f28;stroke:none;" />
<rect
width="17"
height="17"
rx="5"
ry="5"
x="277"
y="177"
id="78"
style="fill:#d74f28;stroke:none;" />
<rect
width="17"
height="17"
rx="5"
ry="5"
x="297"
y="177"
id="79"
style="fill:#d74f28;stroke:none;" />
<rect
width="57"
height="17"
rx="5"
ry="5"
x="317"
y="177"
id="80"
style="fill:#3ea8c4;stroke:none;" />

</g>
<g transform="translate(0,0)">
<rect
width="57"
height="17"
rx="5"
ry="5"
x="17"
y="197"
id="81"
style="fill:#3ea8c4;stroke:none;" />
<rect
width="57"
height="17"
rx="5"
ry="5"
x="77"
y="197"
id="82"
style="fill:#3ea8c4;stroke:none;" />
<rect
width="17"
height="17"
rx="5"
ry="5"
x="137"
y="197"
id="83"
style="fill:#3ea8c4;stroke:none;" />
<rect
width="57"
height="17"
rx="5"
ry="5"
x="157"
y="197"
id="84"
style="fill:#e7363b;stroke:none;" />
<rect
width="17"
height="17"
rx="5"
ry="5"
x="217"
y="197"
id="85"
style="fill:#e7363b;stroke:none;" />
<rect
width="17"
height="17"
rx="5"
ry="5"
x="237"
y="197"
id="86"
style="fill:#899013;stroke:none;" />
<rect
width="17"
height="17"
rx="5"
ry="5"
x="257"
y="197"
id="87"
style="fill:#899013;stroke:none;" />
<rect
width="17"
height="17"
rx="5"
ry="5"
x="277"
y="197"
id="88"
style="fill:#899013;stroke:none;" />
<rect
width="17"
height="17"
rx="5"
ry="5"
x="297"
y="197"
id="89"
style="fill:#899013;stroke:none;" />
<rect
width="17"
height="17"
rx="5"
ry="5"
x="317"
y="197"
id="90"
style="fill:#f06887;stroke:none;" />
<rect
width="17"
height="17"
rx="5"
ry="5"
x="337"
y="197"
id="91"
style="fill:#61743c;stroke:none;" />
<rect
width="17"
height="17"
rx="5"
ry="5"
x="357"
y="197"
id="92"
style="fill:#61743c;stroke:none;" />

</g>
<g transform="translate(0,0)">
<rect
width="57"
height="17"
rx="5"
ry="5"
x="17"
y="217"
id="93"
style="fill:#fba0c4;stroke:none;" />
<rect
width="17"
height="17"
rx="5"
ry="5"
x="77"
y="217"
id="94"
style="fill:#dc89ac;stroke:none;" />
<rect
width="17"
height="17"
rx="5"
ry="5"
x="97"
y="217"
id="95"
style="fill:#dc89ac;stroke:none;" />
<rect
width="17"
height="17"
rx="5"
ry="5"
x="117"
y="217"
id="96"
style="fill:#dc89ac;stroke:none;" />
<rect
width="57"
height="17"
rx="5"
ry="5"
x="137"
y="217"
id="97"
style="fill:#38f11e;stroke:none;" />
<rect
width="17"
height="17"
rx="5"
ry="5"
x="197"
y="217"
id="98"
style="fill:#38f11e;stroke:none;" />
<rect
width="57"
height="17"
rx="5"
ry="5"
x="217"
y="217"
id="99"
style="fill:#38f11e;stroke:none;" />
<rect
width="17"
height="17"
rx="5"
ry="5"
x="277"
y="217"
id="100"
style="fill:#38f11e;stroke:none;" />
<rect
width="17"
height="17"
rx="5"
ry="5"
x="297"
y="217"
id="101"
style="fill:#851007;stroke:none;" />
<rect
width="17"
height="17"
rx="5"
ry="5"
x="317"
y="217"
id="102"
style="fill:#851007;stroke:none;" />
<rect
width="17"
height="17"
rx="5"
ry="5"
x="337"
y="217"
id="103"
style="fill:#851007;stroke:none;" />
<rect
width="17"
height="17"
rx="5"
ry="5"
x="357"
y="217"
id="104"
style="fill:#851007;stroke:none;" />

</g>
<g transform="translate(10,0)">
<rect
width="17"
height="17"
rx="5"
ry="5"
x="17"
y="237"
id="105"
style="fill:#40d6ad;stroke:none;" />
<rect
width="57"
height="17"
rx="5"
ry="5"
x="37"
y="237"
id="106"
style="fill:#40d6ad;stroke:none;" />
<rect
width="17"
height="17"
rx="5"
ry="5"
x="97"
y="237"
id="107"
style="fill:#db778b;stroke:none;" />
<rect
width="17"
height="17"
rx="5"
ry="5"
x="117"
y="237"
id="108"
style="fill:#db778b;stroke:none;" />
<rect
width="57"
height="17"
rx="5"
ry="5"
x="137"
y="237"
id="109"
style="fill:#db778b;stroke:none;" />
<rect
width="17"
height="17"
rx="5"
ry="5"
x="197"
y="237"
id="110"
style="fill:#db778b;stroke:none;" />
<rect
width="17"
height="17"
rx="5"
ry="5"
x="217"
y="237"
id="111"
style="fill:#47c11a;stroke:none;" />
<rect
width="17"
height="17"
rx="5"
ry="5"
x="237"
y="237"
id="112"
style="fill:#47c11a;stroke:none;" />
<rect
width="57"
height="17"
rx="5"
ry="5"
x="257"
y="237"
id="113"
style="fill:#47c11a;stroke:none;" />
<rect
width="17"
height="17"
rx="5"
ry="5"
x="317"
y="237"
id="114"
style="fill:#47c11a;stroke:none;" />
<rect
width="17"
height="17"
rx="5"
ry="5"
x="337"
y="237"
id="115"
style="fill:#e29ee0;stroke:none;" />

</g>
<g transform="translate(140,0)">
<rect
width="57"
height="17"
rx="5"
ry="5"
x="17"
y="257"
id="116"
style="fill:#ba930b;stroke:none;" />
<rect
width="17"
height="17"
rx="5"
ry="5"
x="77"
y="257"
id="117"
style="fill:#ba930b;stroke:none;" />

</g>
</g></g><g id="background">
<rect
width="391"
height="291"
x="0"
y="0"
id="-1"
style="stroke-width: 0px; fill: #000080;"/>
</g></defs>
<use xlink:href="#background" />
<use xlink:href="#foreground" />
</svg>
