<?xml version="1.0" encoding="UTF-8" standalone="no"?>
<svg 
xmlns:dc="http://purl.org/dc/elements/1.1/"
xmlns:cc="http://creativecommons.org/ns#"
xmlns:rdf="http://www.w3.org/1999/02/22-rdf-syntax-ns#"
xmlns:svg="http://www.w3.org/2000/svg"
xmlns:xlink="http://www.w3.org/1999/xlink"
xmlns="http://www.w3.org/2000/svg"
version="1.1"
id="svg2">
<defs><g id="foreground"><g>
<g transform="translate(0,0)">
<rect
width="57"
height="17"
rx="5"
ry="5"
x="17"
y="17"
id="0"
style="fill:#53acd0;stroke:none;" />
<rect
width="57"
height="17"
rx="5"
ry="5"
x="77"
y="17"
id="1"
style="fill:#53acd0;stroke:none;" />
<rect
width="17"
height="17"
rx="5"
ry="5"
x="137"
y="17"
id="2"
style="fill:#f6e822;stroke:none;" />
<rect
width="57"
height="17"
rx="5"
ry="5"
x="157"
y="17"
id="3"
style="fill:#f6e822;stroke:none;" />
<rect
width="57"
height="17"
rx="5"
ry="5"
x="217"
y="17"
id="4"
style="fill:#fc01c4;stroke:none;" />
<rect
width="17"
height="17"
rx="5"
ry="5"
x="277"
y="17"
id="5"
style="fill:#fc01c4;stroke:none;" />
<rect
width="57"
height="17"
rx="5"
ry="5"
x="297"
y="17"
id="6"
style="fill:#e3a7f8;stroke:none;" />
<rect
width="17"
height="17"
rx="5"
ry="5"
x="357"
y="17"
id="7"
style="fill:#e3a7f8;stroke:none;" />

</g>
<g transform="translate(0,0)">
<rect
width="57"
height="17"
rx="5"
ry="5"
x="17"
y="37"
id="8"
style="fill:#e3a7f8;stroke:none;" />
<rect
width="17"
height="17"
rx="5"
ry="5"
x="77"
y="37"
id="9"
style="fill:#68c744;stroke:none;" />
<rect
width="57"
height="17"
rx="5"
ry="5"
x="97"
y="37"
id="10"
style="fill:#68c744;stroke:none;" />
<rect
width="57"
height="17"
rx="5"
ry="5"
x="157"
y="37"
id="11"
style="fill:#f15714;stroke:none;" />
<rect
width="17"
height="17"
rx="5"
ry="5"
x="217"
y="37"
id="12"
style="fill:#f15714;stroke:none;" />
<rect
width="57"
height="17"
rx="5"
ry="5"
x="237"
y="37"
id="13"
style="fill:#5ff2c6;stroke:none;" />
<rect
width="17"
height="17"
rx="5"
ry="5"
x="297"
y="37"
id="14"
style="fill:#5ff2c6;stroke:none;" />
<rect
width="57"
height="17"
rx="5"
ry="5"
x="317"
y="37"
id="15"
style="fill:#88fe2f;stroke:none;" />

</g>
<g transform="translate(20,0)">
<rect
width="57"
height="17"
rx="5"
ry="5"
x="17"
y="57"
id="16"
style="fill:#88fe2f;stroke:none;" />
<rect
width="17"
height="17"
rx="5"
ry="5"
x="77"
y="57"
id="17"
style="fill:#fb2f14;stroke:none;" />
<rect
width="17"
height="17"
rx="5"
ry="5"
x="97"
y="57"
id="18"
style="fill:#fb2f14;stroke:none;" />
<rect
width="57"
height="17"
rx="5"
ry="5"
x="117"
y="57"
id="19"
style="fill:#62ebe0;stroke:none;" />
<rect
width="17"
height="17"
rx="5"
ry="5"
x="177"
y="57"
id="20"
style="fill:#aaba3d;stroke:none;" />
<rect
width="17"
height="17"
rx="5"
ry="5"
x="197"
y="57"
id="21"
style="fill:#bf85cf;stroke:none;" />
<rect
width="17"
height="17"
rx="5"
ry="5"
x="217"
y="57"
id="22"
style="fill:#bf85cf;stroke:none;" />
<rect
width="57"
height="17"
rx="5"
ry="5"
x="237"
y="57"
id="23"
style="fill:#54ab1e;stroke:none;" />
<rect
width="17"
height="17"
rx="5"
ry="5"
x="297"
y="57"
id="24"
style="fill:#54ab1e;stroke:none;" />
<rect
width="17"
height="17"
rx="5"
ry="5"
x="317"
y="57"
id="25"
style="fill:#cb9cae;stroke:none;" />

</g>
<g transform="translate(10,0)">
<rect
width="57"
height="17"
rx="5"
ry="5"
x="17"
y="77"
id="26"
style="fill:#7cd857;stroke:none;" />
<rect
width="57"
height="17"
rx="5"
ry="5"
x="77"
y="77"
id="27"
style="fill:#7cd857;stroke:none;" />
<rect
width="57"
height="17"
rx="5"
ry="5"
x="137"
y="77"
id="28"
style="fill:#43c1dd;stroke:none;" />
<rect
width="17"
height="17"
rx="5"
ry="5"
x="197"
y="77"
id="29"
style="fill:#43c1dd;stroke:none;" />
<rect
width="57"
height="17"
rx="5"
ry="5"
x="217"
y="77"
id="30"
style="fill:#43c1dd;stroke:none;" />
<rect
width="17"
height="17"
rx="5"
ry="5"
x="277"
y="77"
id="31"
style="fill:#43c1dd;stroke:none;" />
<rect
width="57"
height="17"
rx="5"
ry="5"
x="297"
y="77"
id="32"
style="fill:#e4a3aa;stroke:none;" />

</g>
<g transform="translate(20,0)">
<rect
width="57"
height="17"
rx="5"
ry="5"
x="17"
y="97"
id="33"
style="fill:#e4a3aa;stroke:none;" />
<rect
width="57"
height="17"
rx="5"
ry="5"
x="77"
y="97"
id="34"
style="fill:#e4a3aa;stroke:none;" />
<rect
width="57"
height="17"
rx="5"
ry="5"
x="137"
y="97"
id="35"
style="fill:#59d208;stroke:none;" />
<rect
width="57"
height="17"
rx="5"
ry="5"
x="197"
y="97"
id="36"
style="fill:#59d208;stroke:none;" />
<rect
width="17"
height="17"
rx="5"
ry="5"
x="257"
y="97"
id="37"
style="fill:#7caae9;stroke:none;" />
<rect
width="57"
height="17"
rx="5"
ry="5"
x="277"
y="97"
id="38"
style="fill:#7caae9;stroke:none;" />

</g>
<g transform="translate(0,0)">
<rect
width="57"
height="17"
rx="5"
ry="5"
x="17"
y="117"
id="39"
style="fill:#7caae9;stroke:none;" />
<rect
width="17"
height="17"
rx="5"
ry="5"
x="77"
y="117"
id="40"
style="fill:#7caae9;stroke:none;" />
<rect
width="17"
height="17"
rx="5"
ry="5"
x="97"
y="117"
id="41"
style="fill:#0fe317;stroke:none;" />
<rect
width="17"
height="17"
rx="5"
ry="5"
x="117"
y="117"
id="42"
style="fill:#0fe317;stroke:none;" />
<rect
width="57"
height="17"
rx="5"
ry="5"
x="137"
y="117"
id="43"
style="fill:#0fe317;stroke:none;" />
<rect
width="57"
height="17"
rx="5"
ry="5"
x="197"
y="117"
id="44"
style="fill:#fb3cb6;stroke:none;" />
<rect
width="17"
height="17"
rx="5"
ry="5"
x="257"
y="117"
id="45"
style="fill:#2cad73;stroke:none;" />
<rect
width="17"
height="17"
rx="5"
ry="5"
x="277"
y="117"
id="46"
style="fill:#fe1f90;stroke:none;" />
<rect
width="57"
height="17"
rx="5"
ry="5"
x="297"
y="117"
id="47"
style="fill:#fe1f90;stroke:none;" />
<rect
width="17"
height="17"
rx="5"
ry="5"
x="357"
y="117"
id="48"
style="fill:#fe1f90;stroke:none;" />

</g>
<g transform="translate(0,0)">
<rect
width="57"
height="17"
rx="5"
ry="5"
x="17"
y="137"
id="49"
style="fill:#f792f2;stroke:none;" />
<rect
width="17"
height="17"
rx="5"
ry="5"
x="77"
y="137"
id="50"
style="fill:#f792f2;stroke:none;" />
<rect
width="57"
height="17"
rx="5"
ry="5"
x="97"
y="137"
id="51"
style="fill:#f792f2;stroke:none;" />
<rect
width="17"
height="17"
rx="5"
ry="5"
x="157"
y="137"
id="52"
style="fill:#0fd00e;stroke:none;" />
<rect
width="17"
height="17"
rx="5"
ry="5"
x="177"
y="137"
id="53"
style="fill:#0fd00e;stroke:none;" />
<rect
width="57"
height="17"
rx="5"
ry="5"
x="197"
y="137"
id="54"
style="fill:#0fd00e;stroke:none;" />
<rect
width="57"
height="17"
rx="5"
ry="5"
x="257"
y="137"
id="55"
style="fill:#fc7228;stroke:none;" />
<rect
width="17"
height="17"
rx="5"
ry="5"
x="317"
y="137"
id="56"
style="fill:#fc7228;stroke:none;" />
<rect
width="17"
height="17"
rx="5"
ry="5"
x="337"
y="137"
id="57"
style="fill:#ace8ad;stroke:none;" />
<rect
width="17"
height="17"
rx="5"
ry="5"
x="357"
y="137"
id="58"
style="fill:#ace8ad;stroke:none;" />

</g>
<g transform="translate(0,0)">
<rect
width="17"
height="17"
rx="5"
ry="5"
x="17"
y="157"
id="59"
style="fill:#ace8ad;stroke:none;" />
<rect
width="57"
height="17"
rx="5"
ry="5"
x="37"
y="157"
id="60"
style="fill:#4c8af7;stroke:none;" />
<rect
width="17"
height="17"
rx="5"
ry="5"
x="97"
y="157"
id="61"
style="fill:#7e73fb;stroke:none;" />
<rect
width="17"
height="17"
rx="5"
ry="5"
x="117"
y="157"
id="62"
style="fill:#7e73fb;stroke:none;" />
<rect
width="57"
height="17"
rx="5"
ry="5"
x="137"
y="157"
id="63"
style="fill:#7e73fb;stroke:none;" />
<rect
width="57"
height="17"
rx="5"
ry="5"
x="197"
y="157"
id="64"
style="fill:#30e062;stroke:none;" />
<rect
width="17"
height="17"
rx="5"
ry="5"
x="257"
y="157"
id="65"
style="fill:#30e062;stroke:none;" />
<rect
width="57"
height="17"
rx="5"
ry="5"
x="277"
y="157"
id="66"
style="fill:#f26209;stroke:none;" />
<rect
width="17"
height="17"
rx="5"
ry="5"
x="337"
y="157"
id="67"
style="fill:#f26209;stroke:none;" />
<rect
width="17"
height="17"
rx="5"
ry="5"
x="357"
y="157"
id="68"
style="fill:#f26209;stroke:none;" />

</g>
<g transform="translate(0,0)">
<rect
width="17"
height="17"
rx="5"
ry="5"
x="17"
y="177"
id="69"
style="fill:#e57e18;stroke:none;" />
<rect
width="17"
height="17"
rx="5"
ry="5"
x="37"
y="177"
id="70"
style="fill:#e57e18;stroke:none;" />
<rect
width="17"
height="17"
rx="5"
ry="5"
x="57"
y="177"
id="71"
style="fill:#e57e18;stroke:none;" />
<rect
width="57"
height="17"
rx="5"
ry="5"
x="77"
y="177"
id="72"
style="fill:#1ff41e;stroke:none;" />
<rect
width="17"
height="17"
rx="5"
ry="5"
x="137"
y="177"
id="73"
style="fill:#1ff41e;stroke:none;" />
<rect
width="57"
height="17"
rx="5"
ry="5"
x="157"
y="177"
id="74"
style="fill:#1ff41e;stroke:none;" />
<rect
width="17"
height="17"
rx="5"
ry="5"
x="217"
y="177"
id="75"
style="fill:#1ff41e;stroke:none;" />
<rect
width="17"
height="17"
rx="5"
ry="5"
x="237"
y="177"
id="76"
style="fill:#fd0d0b;stroke:none;" />
<rect
width="17"
height="17"
rx="5"
ry="5"
x="257"
y="177"
id="77"
style="fill:#fd0d0b;stroke:none;" />
<rect
width="17"
height="17"
rx="5"
ry="5"
x="277"
y="177"
id="78"
style="fill:#fd0d0b;stroke:none;" />
<rect
width="17"
height="17"
rx="5"
ry="5"
x="297"
y="177"
id="79"
style="fill:#fd0d0b;stroke:none;" />
<rect
width="57"
height="17"
rx="5"
ry="5"
x="317"
y="177"
id="80"
style="fill:#9fcd08;stroke:none;" />

</g>
<g transform="translate(0,0)">
<rect
width="57"
height="17"
rx="5"
ry="5"
x="17"
y="197"
id="81"
style="fill:#9fcd08;stroke:none;" />
<rect
width="57"
height="17"
rx="5"
ry="5"
x="77"
y="197"
id="82"
style="fill:#9fcd08;stroke:none;" />
<rect
width="17"
height="17"
rx="5"
ry="5"
x="137"
y="197"
id="83"
style="fill:#9fcd08;stroke:none;" />
<rect
width="57"
height="17"
rx="5"
ry="5"
x="157"
y="197"
id="84"
style="fill:#2aa7e4;stroke:none;" />
<rect
width="17"
height="17"
rx="5"
ry="5"
x="217"
y="197"
id="85"
style="fill:#2aa7e4;stroke:none;" />
<rect
width="17"
height="17"
rx="5"
ry="5"
x="237"
y="197"
id="86"
style="fill:#ccdc47;stroke:none;" />
<rect
width="17"
height="17"
rx="5"
ry="5"
x="257"
y="197"
id="87"
style="fill:#ccdc47;stroke:none;" />
<rect
width="17"
height="17"
rx="5"
ry="5"
x="277"
y="197"
id="88"
style="fill:#ccdc47;stroke:none;" />
<rect
width="17"
height="17"
rx="5"
ry="5"
x="297"
y="197"
id="89"
style="fill:#ccdc47;stroke:none;" />
<rect
width="17"
height="17"
rx="5"
ry="5"
x="317"
y="197"
id="90"
style="fill:#f03afb;stroke:none;" />
<rect
width="17"
height="17"
rx="5"
ry="5"
x="337"
y="197"
id="91"
style="fill:#44fbd7;stroke:none;" />
<rect
width="17"
height="17"
rx="5"
ry="5"
x="357"
y="197"
id="92"
style="fill:#44fbd7;stroke:none;" />

</g>
<g transform="translate(0,0)">
<rect
width="57"
height="17"
rx="5"
ry="5"
x="17"
y="217"
id="93"
style="fill:#ff8635;stroke:none;" />
<rect
width="17"
height="17"
rx="5"
ry="5"
x="77"
y="217"
id="94"
style="fill:#fd2b49;stroke:none;" />
<rect
width="17"
height="17"
rx="5"
ry="5"
x="97"
y="217"
id="95"
style="fill:#fd2b49;stroke:none;" />
<rect
width="17"
height="17"
rx="5"
ry="5"
x="117"
y="217"
id="96"
style="fill:#fd2b49;stroke:none;" />
<rect
width="57"
height="17"
rx="5"
ry="5"
x="137"
y="217"
id="97"
style="fill:#bfc167;stroke:none;" />
<rect
width="17"
height="17"
rx="5"
ry="5"
x="197"
y="217"
id="98"
style="fill:#bfc167;stroke:none;" />
<rect
width="57"
height="17"
rx="5"
ry="5"
x="217"
y="217"
id="99"
style="fill:#bfc167;stroke:none;" />
<rect
width="17"
height="17"
rx="5"
ry="5"
x="277"
y="217"
id="100"
style="fill:#bfc167;stroke:none;" />
<rect
width="17"
height="17"
rx="5"
ry="5"
x="297"
y="217"
id="101"
style="fill:#ed3ccc;stroke:none;" />
<rect
width="17"
height="17"
rx="5"
ry="5"
x="317"
y="217"
id="102"
style="fill:#ed3ccc;stroke:none;" />
<rect
width="17"
height="17"
rx="5"
ry="5"
x="337"
y="217"
id="103"
style="fill:#ed3ccc;stroke:none;" />
<rect
width="17"
height="17"
rx="5"
ry="5"
x="357"
y="217"
id="104"
style="fill:#ed3ccc;stroke:none;" />

</g>
<g transform="translate(10,0)">
<rect
width="17"
height="17"
rx="5"
ry="5"
x="17"
y="237"
id="105"
style="fill:#05d0b2;stroke:none;" />
<rect
width="57"
height="17"
rx="5"
ry="5"
x="37"
y="237"
id="106"
style="fill:#05d0b2;stroke:none;" />
<rect
width="17"
height="17"
rx="5"
ry="5"
x="97"
y="237"
id="107"
style="fill:#d68c94;stroke:none;" />
<rect
width="17"
height="17"
rx="5"
ry="5"
x="117"
y="237"
id="108"
style="fill:#d68c94;stroke:none;" />
<rect
width="57"
height="17"
rx="5"
ry="5"
x="137"
y="237"
id="109"
style="fill:#d68c94;stroke:none;" />
<rect
width="17"
height="17"
rx="5"
ry="5"
x="197"
y="237"
id="110"
style="fill:#d68c94;stroke:none;" />
<rect
width="17"
height="17"
rx="5"
ry="5"
x="217"
y="237"
id="111"
style="fill:#effe8b;stroke:none;" />
<rect
width="17"
height="17"
rx="5"
ry="5"
x="237"
y="237"
id="112"
style="fill:#effe8b;stroke:none;" />
<rect
width="57"
height="17"
rx="5"
ry="5"
x="257"
y="237"
id="113"
style="fill:#effe8b;stroke:none;" />
<rect
width="17"
height="17"
rx="5"
ry="5"
x="317"
y="237"
id="114"
style="fill:#effe8b;stroke:none;" />
<rect
width="17"
height="17"
rx="5"
ry="5"
x="337"
y="237"
id="115"
style="fill:#ae81dc;stroke:none;" />

</g>
<g transform="translate(140,0)">
<rect
width="57"
height="17"
rx="5"
ry="5"
x="17"
y="257"
id="116"
style="fill:#83e84a;stroke:none;" />
<rect
width="17"
height="17"
rx="5"
ry="5"
x="77"
y="257"
id="117"
style="fill:#83e84a;stroke:none;" />

</g>
</g></g><g id="background">
<rect
width="391"
height="291"
x="0"
y="0"
id="-1"
style="stroke-width: 0px; fill: #000000;"/>
</g></defs>
<use xlink:href="#background" />
<use xlink:href="#foreground" />
</svg>
