<?xml version="1.0" encoding="UTF-8" standalone="no"?>
<svg 
xmlns:dc="http://purl.org/dc/elements/1.1/"
xmlns:cc="http://creativecommons.org/ns#"
xmlns:rdf="http://www.w3.org/1999/02/22-rdf-syntax-ns#"
xmlns:svg="http://www.w3.org/2000/svg"
xmlns:xlink="http://www.w3.org/1999/xlink"
xmlns="http://www.w3.org/2000/svg"
version="1.1"
id="svg2">
<defs><g id="foreground">
<rect
width="57"
height="17"
x="17"
y="17"
id="0"
style="fill:#fffdf7;stroke:none;" />
<rect
width="57"
height="17"
x="77"
y="17"
id="1"
style="fill:#fffdf7;stroke:none;" />
<rect
width="17"
height="17"
x="137"
y="17"
id="2"
style="fill:#5b5bff;stroke:none;" />
<rect
width="57"
height="17"
x="157"
y="17"
id="3"
style="fill:#5b5bff;stroke:none;" />
<rect
width="57"
height="17"
x="217"
y="17"
id="4"
style="fill:#fff1c6;stroke:none;" />
<rect
width="17"
height="17"
x="277"
y="17"
id="5"
style="fill:#fff1c6;stroke:none;" />
<rect
width="57"
height="17"
x="297"
y="17"
id="6"
style="fill:#ffd586;stroke:none;" />
<rect
width="17"
height="17"
x="357"
y="17"
id="7"
style="fill:#ffd586;stroke:none;" />
<rect
width="57"
height="17"
x="17"
y="37"
id="8"
style="fill:#ffd586;stroke:none;" />
<rect
width="17"
height="17"
x="77"
y="37"
id="9"
style="fill:#fe67eb;stroke:none;" />
<rect
width="57"
height="17"
x="97"
y="37"
id="10"
style="fill:#fe67eb;stroke:none;" />
<rect
width="57"
height="17"
x="157"
y="37"
id="11"
style="fill:#fff284;stroke:none;" />
<rect
width="17"
height="17"
x="217"
y="37"
id="12"
style="fill:#fff284;stroke:none;" />
<rect
width="57"
height="17"
x="237"
y="37"
id="13"
style="fill:#2966b8;stroke:none;" />
<rect
width="17"
height="17"
x="297"
y="37"
id="14"
style="fill:#2966b8;stroke:none;" />
<rect
width="57"
height="17"
x="317"
y="37"
id="15"
style="fill:#e7a9fe;stroke:none;" />
<rect
width="57"
height="17"
x="17"
y="57"
id="16"
style="fill:#e7a9fe;stroke:none;" />
<rect
width="17"
height="17"
x="77"
y="57"
id="17"
style="fill:#dfdf00;stroke:none;" />
<rect
width="17"
height="17"
x="97"
y="57"
id="18"
style="fill:#dfdf00;stroke:none;" />
<rect
width="57"
height="17"
x="117"
y="57"
id="19"
style="fill:#ffa4ff;stroke:none;" />
<rect
width="17"
height="17"
x="177"
y="57"
id="20"
style="fill:#ff4848;stroke:none;" />
<rect
width="17"
height="17"
x="197"
y="57"
id="21"
style="fill:#a6caa9;stroke:none;" />
<rect
width="17"
height="17"
x="217"
y="57"
id="22"
style="fill:#a6caa9;stroke:none;" />
<rect
width="57"
height="17"
x="237"
y="57"
id="23"
style="fill:#dd75dd;stroke:none;" />
<rect
width="17"
height="17"
x="297"
y="57"
id="24"
style="fill:#dd75dd;stroke:none;" />
<rect
width="17"
height="17"
x="317"
y="57"
id="25"
style="fill:#f7de00;stroke:none;" />
<rect
width="57"
height="17"
x="17"
y="77"
id="26"
style="fill:#ff5353;stroke:none;" />
<rect
width="57"
height="17"
x="77"
y="77"
id="27"
style="fill:#ff5353;stroke:none;" />
<rect
width="57"
height="17"
x="137"
y="77"
id="28"
style="fill:#ffbbff;stroke:none;" />
<rect
width="17"
height="17"
x="197"
y="77"
id="29"
style="fill:#ffbbff;stroke:none;" />
<rect
width="57"
height="17"
x="217"
y="77"
id="30"
style="fill:#ffbbff;stroke:none;" />
<rect
width="17"
height="17"
x="277"
y="77"
id="31"
style="fill:#ffbbff;stroke:none;" />
<rect
width="57"
height="17"
x="297"
y="77"
id="32"
style="fill:#2dc800;stroke:none;" />
<rect
width="57"
height="17"
x="17"
y="97"
id="33"
style="fill:#2dc800;stroke:none;" />
<rect
width="57"
height="17"
x="77"
y="97"
id="34"
style="fill:#2dc800;stroke:none;" />
<rect
width="57"
height="17"
x="137"
y="97"
id="35"
style="fill:#b96f6f;stroke:none;" />
<rect
width="57"
height="17"
x="197"
y="97"
id="36"
style="fill:#b96f6f;stroke:none;" />
<rect
width="17"
height="17"
x="257"
y="97"
id="37"
style="fill:#caffd8;stroke:none;" />
<rect
width="57"
height="17"
x="277"
y="97"
id="38"
style="fill:#caffd8;stroke:none;" />
<rect
width="57"
height="17"
x="17"
y="117"
id="39"
style="fill:#caffd8;stroke:none;" />
<rect
width="17"
height="17"
x="77"
y="117"
id="40"
style="fill:#caffd8;stroke:none;" />
<rect
width="17"
height="17"
x="97"
y="117"
id="41"
style="fill:#d900d9;stroke:none;" />
<rect
width="17"
height="17"
x="117"
y="117"
id="42"
style="fill:#d900d9;stroke:none;" />
<rect
width="57"
height="17"
x="137"
y="117"
id="43"
style="fill:#d900d9;stroke:none;" />
<rect
width="57"
height="17"
x="197"
y="117"
id="44"
style="fill:#ffa04a;stroke:none;" />
<rect
width="17"
height="17"
x="257"
y="117"
id="45"
style="fill:#8282ff;stroke:none;" />
<rect
width="17"
height="17"
x="277"
y="117"
id="46"
style="fill:#ffe6b5;stroke:none;" />
<rect
width="57"
height="17"
x="297"
y="117"
id="47"
style="fill:#ffe6b5;stroke:none;" />
<rect
width="17"
height="17"
x="357"
y="117"
id="48"
style="fill:#ffe6b5;stroke:none;" />
<rect
width="57"
height="17"
x="17"
y="137"
id="49"
style="fill:#ffebd9;stroke:none;" />
<rect
width="17"
height="17"
x="77"
y="137"
id="50"
style="fill:#ffebd9;stroke:none;" />
<rect
width="57"
height="17"
x="97"
y="137"
id="51"
style="fill:#ffebd9;stroke:none;" />
<rect
width="17"
height="17"
x="157"
y="137"
id="52"
style="fill:#5757ff;stroke:none;" />
<rect
width="17"
height="17"
x="177"
y="137"
id="53"
style="fill:#5757ff;stroke:none;" />
<rect
width="57"
height="17"
x="197"
y="137"
id="54"
style="fill:#5757ff;stroke:none;" />
<rect
width="57"
height="17"
x="257"
y="137"
id="55"
style="fill:#dbeadc;stroke:none;" />
<rect
width="17"
height="17"
x="317"
y="137"
id="56"
style="fill:#dbeadc;stroke:none;" />
<rect
width="17"
height="17"
x="337"
y="137"
id="57"
style="fill:#0000ce;stroke:none;" />
<rect
width="17"
height="17"
x="357"
y="137"
id="58"
style="fill:#0000ce;stroke:none;" />
<rect
width="17"
height="17"
x="17"
y="157"
id="59"
style="fill:#0000ce;stroke:none;" />
<rect
width="57"
height="17"
x="37"
y="157"
id="60"
style="fill:#f9f9dd;stroke:none;" />
<rect
width="17"
height="17"
x="97"
y="157"
id="61"
style="fill:#ffbb7d;stroke:none;" />
<rect
width="17"
height="17"
x="117"
y="157"
id="62"
style="fill:#ffbb7d;stroke:none;" />
<rect
width="57"
height="17"
x="137"
y="157"
id="63"
style="fill:#ffbb7d;stroke:none;" />
<rect
width="57"
height="17"
x="197"
y="157"
id="64"
style="fill:#db00db;stroke:none;" />
<rect
width="17"
height="17"
x="257"
y="157"
id="65"
style="fill:#db00db;stroke:none;" />
<rect
width="57"
height="17"
x="277"
y="157"
id="66"
style="fill:#fffef7;stroke:none;" />
<rect
width="17"
height="17"
x="337"
y="157"
id="67"
style="fill:#fffef7;stroke:none;" />
<rect
width="17"
height="17"
x="357"
y="157"
id="68"
style="fill:#fffef7;stroke:none;" />
<rect
width="17"
height="17"
x="17"
y="177"
id="69"
style="fill:#f9fcff;stroke:none;" />
<rect
width="17"
height="17"
x="37"
y="177"
id="70"
style="fill:#f9fcff;stroke:none;" />
<rect
width="17"
height="17"
x="57"
y="177"
id="71"
style="fill:#f9fcff;stroke:none;" />
<rect
width="57"
height="17"
x="77"
y="177"
id="72"
style="fill:#872187;stroke:none;" />
<rect
width="17"
height="17"
x="137"
y="177"
id="73"
style="fill:#872187;stroke:none;" />
<rect
width="57"
height="17"
x="157"
y="177"
id="74"
style="fill:#872187;stroke:none;" />
<rect
width="17"
height="17"
x="217"
y="177"
id="75"
style="fill:#872187;stroke:none;" />
<rect
width="17"
height="17"
x="237"
y="177"
id="76"
style="fill:#e0e04e;stroke:none;" />
<rect
width="17"
height="17"
x="257"
y="177"
id="77"
style="fill:#e0e04e;stroke:none;" />
<rect
width="17"
height="17"
x="277"
y="177"
id="78"
style="fill:#e0e04e;stroke:none;" />
<rect
width="17"
height="17"
x="297"
y="177"
id="79"
style="fill:#e0e04e;stroke:none;" />
<rect
width="57"
height="17"
x="317"
y="177"
id="80"
style="fill:#ffacec;stroke:none;" />
<rect
width="57"
height="17"
x="17"
y="197"
id="81"
style="fill:#ffacec;stroke:none;" />
<rect
width="57"
height="17"
x="77"
y="197"
id="82"
style="fill:#ffacec;stroke:none;" />
<rect
width="17"
height="17"
x="137"
y="197"
id="83"
style="fill:#ffffaa;stroke:none;" />
<rect
width="57"
height="17"
x="157"
y="197"
id="84"
style="fill:#ff2dff;stroke:none;" />
<rect
width="17"
height="17"
x="217"
y="197"
id="85"
style="fill:#ff2dff;stroke:none;" />
<rect
width="17"
height="17"
x="237"
y="197"
id="86"
style="fill:#d1ffb3;stroke:none;" />
<rect
width="17"
height="17"
x="257"
y="197"
id="87"
style="fill:#d1ffb3;stroke:none;" />
<rect
width="17"
height="17"
x="277"
y="197"
id="88"
style="fill:#d1ffb3;stroke:none;" />
<rect
width="17"
height="17"
x="297"
y="197"
id="89"
style="fill:#d1ffb3;stroke:none;" />
<rect
width="17"
height="17"
x="317"
y="197"
id="90"
style="fill:#a55feb;stroke:none;" />
<rect
width="17"
height="17"
x="337"
y="197"
id="91"
style="fill:#fff7b7;stroke:none;" />
<rect
width="17"
height="17"
x="357"
y="197"
id="92"
style="fill:#fff7b7;stroke:none;" />
<rect
width="57"
height="17"
x="17"
y="217"
id="93"
style="fill:#e77afe;stroke:none;" />
<rect
width="17"
height="17"
x="77"
y="217"
id="94"
style="fill:#aaaaff;stroke:none;" />
<rect
width="17"
height="17"
x="97"
y="217"
id="95"
style="fill:#aaaaff;stroke:none;" />
<rect
width="17"
height="17"
x="117"
y="217"
id="96"
style="fill:#aaaaff;stroke:none;" />
<rect
width="57"
height="17"
x="137"
y="217"
id="97"
style="fill:#c8b400;stroke:none;" />
<rect
width="17"
height="17"
x="197"
y="217"
id="98"
style="fill:#c8b400;stroke:none;" />
<rect
width="57"
height="17"
x="217"
y="217"
id="99"
style="fill:#c8b400;stroke:none;" />
<rect
width="17"
height="17"
x="277"
y="217"
id="100"
style="fill:#c8b400;stroke:none;" />
<rect
width="17"
height="17"
x="297"
y="217"
id="101"
style="fill:#cb59e8;stroke:none;" />
<rect
width="17"
height="17"
x="317"
y="217"
id="102"
style="fill:#cb59e8;stroke:none;" />
<rect
width="17"
height="17"
x="337"
y="217"
id="103"
style="fill:#cb59e8;stroke:none;" />
<rect
width="17"
height="17"
x="357"
y="217"
id="104"
style="fill:#cb59e8;stroke:none;" />
<rect
width="17"
height="17"
x="17"
y="237"
id="105"
style="fill:#f7f7ce;stroke:none;" />
<rect
width="57"
height="17"
x="37"
y="237"
id="106"
style="fill:#f7f7ce;stroke:none;" />
<rect
width="17"
height="17"
x="97"
y="237"
id="107"
style="fill:#fe8bf0;stroke:none;" />
<rect
width="17"
height="17"
x="117"
y="237"
id="108"
style="fill:#fe8bf0;stroke:none;" />
<rect
width="57"
height="17"
x="137"
y="237"
id="109"
style="fill:#fe8bf0;stroke:none;" />
<rect
width="17"
height="17"
x="197"
y="237"
id="110"
style="fill:#fe8bf0;stroke:none;" />
<rect
width="17"
height="17"
x="217"
y="237"
id="111"
style="fill:#89fc63;stroke:none;" />
<rect
width="17"
height="17"
x="237"
y="237"
id="112"
style="fill:#89fc63;stroke:none;" />
<rect
width="57"
height="17"
x="257"
y="237"
id="113"
style="fill:#89fc63;stroke:none;" />
<rect
width="17"
height="17"
x="317"
y="237"
id="114"
style="fill:#89fc63;stroke:none;" />
<rect
width="17"
height="17"
x="337"
y="237"
id="115"
style="fill:#e469fe;stroke:none;" />
<rect
width="57"
height="17"
x="17"
y="257"
id="116"
style="fill:#b3ff99;stroke:none;" />
<rect
width="17"
height="17"
x="77"
y="257"
id="117"
style="fill:#b3ff99;stroke:none;" />
</g><g id="background">
<rect
width="391"
height="291"
x="0"
y="0"
id="-1"
style="stroke-width: 0px; fill: #000000;"/>
</g></defs>
<use xlink:href="#background" />
<use xlink:href="#foreground" />
</svg>
