<?xml version="1.0" encoding="UTF-8" standalone="no"?>
<svg 
xmlns:dc="http://purl.org/dc/elements/1.1/"
xmlns:cc="http://creativecommons.org/ns#"
xmlns:rdf="http://www.w3.org/1999/02/22-rdf-syntax-ns#"
xmlns:svg="http://www.w3.org/2000/svg"
xmlns:xlink="http://www.w3.org/1999/xlink"
xmlns="http://www.w3.org/2000/svg"
version="1.1"
id="svg2">
<defs><g id="foreground">
<rect
width="57"
height="17"
x="17"
y="17"
id="0"
style="fill:#d8f0f8;stroke:none;" />
<rect
width="57"
height="17"
x="77"
y="17"
id="1"
style="fill:#d8f0f8;stroke:none;" />
<rect
width="17"
height="17"
x="137"
y="17"
id="2"
style="fill:#800080;stroke:none;" />
<rect
width="57"
height="17"
x="157"
y="17"
id="3"
style="fill:#800080;stroke:none;" />
<rect
width="57"
height="17"
x="217"
y="17"
id="4"
style="fill:#e1e1ff;stroke:none;" />
<rect
width="17"
height="17"
x="277"
y="17"
id="5"
style="fill:#e1e1ff;stroke:none;" />
<rect
width="57"
height="17"
x="297"
y="17"
id="6"
style="fill:#d9c400;stroke:none;" />
<rect
width="17"
height="17"
x="357"
y="17"
id="7"
style="fill:#d9c400;stroke:none;" />
<rect
width="57"
height="17"
x="17"
y="37"
id="8"
style="fill:#d9c400;stroke:none;" />
<rect
width="17"
height="17"
x="77"
y="37"
id="9"
style="fill:#eebbee;stroke:none;" />
<rect
width="57"
height="17"
x="97"
y="37"
id="10"
style="fill:#eebbee;stroke:none;" />
<rect
width="57"
height="17"
x="157"
y="37"
id="11"
style="fill:#a5ff8a;stroke:none;" />
<rect
width="17"
height="17"
x="217"
y="37"
id="12"
style="fill:#a5ff8a;stroke:none;" />
<rect
width="57"
height="17"
x="237"
y="37"
id="13"
style="fill:#e77afe;stroke:none;" />
<rect
width="17"
height="17"
x="297"
y="37"
id="14"
style="fill:#e77afe;stroke:none;" />
<rect
width="57"
height="17"
x="317"
y="37"
id="15"
style="fill:#ffe3ff;stroke:none;" />
<rect
width="57"
height="17"
x="17"
y="57"
id="16"
style="fill:#ffe3ff;stroke:none;" />
<rect
width="17"
height="17"
x="77"
y="57"
id="17"
style="fill:#dfdf00;stroke:none;" />
<rect
width="17"
height="17"
x="97"
y="57"
id="18"
style="fill:#dfdf00;stroke:none;" />
<rect
width="57"
height="17"
x="117"
y="57"
id="19"
style="fill:#8678e9;stroke:none;" />
<rect
width="17"
height="17"
x="177"
y="57"
id="20"
style="fill:#fe67eb;stroke:none;" />
<rect
width="17"
height="17"
x="197"
y="57"
id="21"
style="fill:#c8b400;stroke:none;" />
<rect
width="17"
height="17"
x="217"
y="57"
id="22"
style="fill:#c8b400;stroke:none;" />
<rect
width="57"
height="17"
x="237"
y="57"
id="23"
style="fill:#ffc8f2;stroke:none;" />
<rect
width="17"
height="17"
x="297"
y="57"
id="24"
style="fill:#ffc8f2;stroke:none;" />
<rect
width="17"
height="17"
x="317"
y="57"
id="25"
style="fill:#52ff20;stroke:none;" />
<rect
width="57"
height="17"
x="17"
y="77"
id="26"
style="fill:#d54fd5;stroke:none;" />
<rect
width="57"
height="17"
x="77"
y="77"
id="27"
style="fill:#d54fd5;stroke:none;" />
<rect
width="57"
height="17"
x="137"
y="77"
id="28"
style="fill:#ffc4ff;stroke:none;" />
<rect
width="17"
height="17"
x="197"
y="77"
id="29"
style="fill:#ffc4ff;stroke:none;" />
<rect
width="57"
height="17"
x="217"
y="77"
id="30"
style="fill:#ffc4ff;stroke:none;" />
<rect
width="17"
height="17"
x="277"
y="77"
id="31"
style="fill:#ffc4ff;stroke:none;" />
<rect
width="57"
height="17"
x="297"
y="77"
id="32"
style="fill:#ffffb5;stroke:none;" />
<rect
width="57"
height="17"
x="17"
y="97"
id="33"
style="fill:#ffffb5;stroke:none;" />
<rect
width="57"
height="17"
x="77"
y="97"
id="34"
style="fill:#ffffb5;stroke:none;" />
<rect
width="57"
height="17"
x="137"
y="97"
id="35"
style="fill:#cb59e8;stroke:none;" />
<rect
width="57"
height="17"
x="197"
y="97"
id="36"
style="fill:#cb59e8;stroke:none;" />
<rect
width="17"
height="17"
x="257"
y="97"
id="37"
style="fill:#cdd11b;stroke:none;" />
<rect
width="57"
height="17"
x="277"
y="97"
id="38"
style="fill:#cdd11b;stroke:none;" />
<rect
width="57"
height="17"
x="17"
y="117"
id="39"
style="fill:#cdd11b;stroke:none;" />
<rect
width="17"
height="17"
x="77"
y="117"
id="40"
style="fill:#cdd11b;stroke:none;" />
<rect
width="17"
height="17"
x="97"
y="117"
id="41"
style="fill:#ff97cb;stroke:none;" />
<rect
width="17"
height="17"
x="117"
y="117"
id="42"
style="fill:#ff97cb;stroke:none;" />
<rect
width="57"
height="17"
x="137"
y="117"
id="43"
style="fill:#ff97cb;stroke:none;" />
<rect
width="57"
height="17"
x="197"
y="117"
id="44"
style="fill:#2897b7;stroke:none;" />
<rect
width="17"
height="17"
x="257"
y="117"
id="45"
style="fill:#ff86c2;stroke:none;" />
<rect
width="17"
height="17"
x="277"
y="117"
id="46"
style="fill:#4bfe78;stroke:none;" />
<rect
width="57"
height="17"
x="297"
y="117"
id="47"
style="fill:#4bfe78;stroke:none;" />
<rect
width="17"
height="17"
x="357"
y="117"
id="48"
style="fill:#4bfe78;stroke:none;" />
<rect
width="57"
height="17"
x="17"
y="137"
id="49"
style="fill:#2f74d0;stroke:none;" />
<rect
width="17"
height="17"
x="77"
y="137"
id="50"
style="fill:#2f74d0;stroke:none;" />
<rect
width="57"
height="17"
x="97"
y="137"
id="51"
style="fill:#2f74d0;stroke:none;" />
<rect
width="17"
height="17"
x="157"
y="137"
id="52"
style="fill:#61f200;stroke:none;" />
<rect
width="17"
height="17"
x="177"
y="137"
id="53"
style="fill:#61f200;stroke:none;" />
<rect
width="57"
height="17"
x="197"
y="137"
id="54"
style="fill:#61f200;stroke:none;" />
<rect
width="57"
height="17"
x="257"
y="137"
id="55"
style="fill:#2897b7;stroke:none;" />
<rect
width="17"
height="17"
x="317"
y="137"
id="56"
style="fill:#2897b7;stroke:none;" />
<rect
width="17"
height="17"
x="337"
y="137"
id="57"
style="fill:#dd597d;stroke:none;" />
<rect
width="17"
height="17"
x="357"
y="137"
id="58"
style="fill:#dd597d;stroke:none;" />
<rect
width="17"
height="17"
x="17"
y="157"
id="59"
style="fill:#dd597d;stroke:none;" />
<rect
width="57"
height="17"
x="37"
y="157"
id="60"
style="fill:#93eeaa;stroke:none;" />
<rect
width="17"
height="17"
x="97"
y="157"
id="61"
style="fill:#ffdd75;stroke:none;" />
<rect
width="17"
height="17"
x="117"
y="157"
id="62"
style="fill:#ffdd75;stroke:none;" />
<rect
width="57"
height="17"
x="137"
y="157"
id="63"
style="fill:#ffdd75;stroke:none;" />
<rect
width="57"
height="17"
x="197"
y="157"
id="64"
style="fill:#ae70ed;stroke:none;" />
<rect
width="17"
height="17"
x="257"
y="157"
id="65"
style="fill:#ae70ed;stroke:none;" />
<rect
width="57"
height="17"
x="277"
y="157"
id="66"
style="fill:#fff1c6;stroke:none;" />
<rect
width="17"
height="17"
x="337"
y="157"
id="67"
style="fill:#fff1c6;stroke:none;" />
<rect
width="17"
height="17"
x="357"
y="157"
id="68"
style="fill:#fff1c6;stroke:none;" />
<rect
width="17"
height="17"
x="17"
y="177"
id="69"
style="fill:#eaea8a;stroke:none;" />
<rect
width="17"
height="17"
x="37"
y="177"
id="70"
style="fill:#eaea8a;stroke:none;" />
<rect
width="17"
height="17"
x="57"
y="177"
id="71"
style="fill:#eaea8a;stroke:none;" />
<rect
width="57"
height="17"
x="77"
y="177"
id="72"
style="fill:#ffc4ff;stroke:none;" />
<rect
width="17"
height="17"
x="137"
y="177"
id="73"
style="fill:#ffc4ff;stroke:none;" />
<rect
width="57"
height="17"
x="157"
y="177"
id="74"
style="fill:#ffc4ff;stroke:none;" />
<rect
width="17"
height="17"
x="217"
y="177"
id="75"
style="fill:#ffc4ff;stroke:none;" />
<rect
width="17"
height="17"
x="237"
y="177"
id="76"
style="fill:#eaea8a;stroke:none;" />
<rect
width="17"
height="17"
x="257"
y="177"
id="77"
style="fill:#eaea8a;stroke:none;" />
<rect
width="17"
height="17"
x="277"
y="177"
id="78"
style="fill:#eaea8a;stroke:none;" />
<rect
width="17"
height="17"
x="297"
y="177"
id="79"
style="fill:#eaea8a;stroke:none;" />
<rect
width="57"
height="17"
x="317"
y="177"
id="80"
style="fill:#7979ff;stroke:none;" />
<rect
width="57"
height="17"
x="17"
y="197"
id="81"
style="fill:#7979ff;stroke:none;" />
<rect
width="57"
height="17"
x="77"
y="197"
id="82"
style="fill:#7979ff;stroke:none;" />
<rect
width="17"
height="17"
x="137"
y="197"
id="83"
style="fill:#7979ff;stroke:none;" />
<rect
width="57"
height="17"
x="157"
y="197"
id="84"
style="fill:#0afe47;stroke:none;" />
<rect
width="17"
height="17"
x="217"
y="197"
id="85"
style="fill:#0afe47;stroke:none;" />
<rect
width="17"
height="17"
x="237"
y="197"
id="86"
style="fill:#daa794;stroke:none;" />
<rect
width="17"
height="17"
x="257"
y="197"
id="87"
style="fill:#daa794;stroke:none;" />
<rect
width="17"
height="17"
x="277"
y="197"
id="88"
style="fill:#daa794;stroke:none;" />
<rect
width="17"
height="17"
x="297"
y="197"
id="89"
style="fill:#daa794;stroke:none;" />
<rect
width="17"
height="17"
x="317"
y="197"
id="90"
style="fill:#3923d6;stroke:none;" />
<rect
width="17"
height="17"
x="337"
y="197"
id="91"
style="fill:#ecfaff;stroke:none;" />
<rect
width="17"
height="17"
x="357"
y="197"
id="92"
style="fill:#ecfaff;stroke:none;" />
<rect
width="57"
height="17"
x="17"
y="217"
id="93"
style="fill:#0000ce;stroke:none;" />
<rect
width="17"
height="17"
x="77"
y="217"
id="94"
style="fill:#7ceb98;stroke:none;" />
<rect
width="17"
height="17"
x="97"
y="217"
id="95"
style="fill:#7ceb98;stroke:none;" />
<rect
width="17"
height="17"
x="117"
y="217"
id="96"
style="fill:#7ceb98;stroke:none;" />
<rect
width="57"
height="17"
x="137"
y="217"
id="97"
style="fill:#a41cc6;stroke:none;" />
<rect
width="17"
height="17"
x="197"
y="217"
id="98"
style="fill:#a41cc6;stroke:none;" />
<rect
width="57"
height="17"
x="217"
y="217"
id="99"
style="fill:#a41cc6;stroke:none;" />
<rect
width="17"
height="17"
x="277"
y="217"
id="100"
style="fill:#a41cc6;stroke:none;" />
<rect
width="17"
height="17"
x="297"
y="217"
id="101"
style="fill:#ede4c9;stroke:none;" />
<rect
width="17"
height="17"
x="317"
y="217"
id="102"
style="fill:#ede4c9;stroke:none;" />
<rect
width="17"
height="17"
x="337"
y="217"
id="103"
style="fill:#ede4c9;stroke:none;" />
<rect
width="17"
height="17"
x="357"
y="217"
id="104"
style="fill:#ede4c9;stroke:none;" />
<rect
width="17"
height="17"
x="17"
y="237"
id="105"
style="fill:#a41cc6;stroke:none;" />
<rect
width="57"
height="17"
x="37"
y="237"
id="106"
style="fill:#a41cc6;stroke:none;" />
<rect
width="17"
height="17"
x="97"
y="237"
id="107"
style="fill:#e9e9be;stroke:none;" />
<rect
width="17"
height="17"
x="117"
y="237"
id="108"
style="fill:#e9e9be;stroke:none;" />
<rect
width="57"
height="17"
x="137"
y="237"
id="109"
style="fill:#e9e9be;stroke:none;" />
<rect
width="17"
height="17"
x="197"
y="237"
id="110"
style="fill:#e9e9be;stroke:none;" />
<rect
width="17"
height="17"
x="217"
y="237"
id="111"
style="fill:#6a6aff;stroke:none;" />
<rect
width="17"
height="17"
x="237"
y="237"
id="112"
style="fill:#6a6aff;stroke:none;" />
<rect
width="57"
height="17"
x="257"
y="237"
id="113"
style="fill:#6a6aff;stroke:none;" />
<rect
width="17"
height="17"
x="317"
y="237"
id="114"
style="fill:#6a6aff;stroke:none;" />
<rect
width="17"
height="17"
x="337"
y="237"
id="115"
style="fill:#59955c;stroke:none;" />
<rect
width="57"
height="17"
x="17"
y="257"
id="116"
style="fill:#d73e68;stroke:none;" />
<rect
width="17"
height="17"
x="77"
y="257"
id="117"
style="fill:#d73e68;stroke:none;" />
</g><g id="background">
<rect
width="391"
height="291"
x="0"
y="0"
id="-1"
style="stroke-width: 0px; fill: #000000;"/>
</g></defs>
<use xlink:href="#background" />
<use xlink:href="#foreground" />
</svg>
